<?xml version="1.0" encoding="UTF-8"?>
<svg version="1.1" xmlns="http://www.w3.org/2000/svg" width="1646" height="1711">
<path d="M0 0 C0.75687103 -0.0080365 1.51374207 -0.016073 2.29354858 -0.02435303 C35.73079223 -0.293493 67.60091504 11.90096868 93.875 32.375 C94.87144531 33.14714844 95.86789062 33.91929688 96.89453125 34.71484375 C111.87401385 46.88687518 126.26175971 60.8955455 137.57080078 76.57470703 C139.02179793 78.57763721 140.50801969 80.5518205 141.99609375 82.52734375 C150.08026513 93.36178788 157.20894953 104.6207729 163.875 116.375 C164.42269043 117.33873535 164.97038086 118.3024707 165.53466797 119.29541016 C172.78423646 132.1584819 179.37146208 145.23423581 185.4375 158.6875 C185.87216583 159.65002182 185.87216583 159.65002182 186.31561279 160.63198853 C197.44130533 185.37072819 197.44130533 185.37072819 196.875 191.375 C192.01894696 198.29964362 183.58161702 200.93329956 175.875 203.375 C175.1015625 203.6225 174.328125 203.87 173.53125 204.125 C166.54749966 206.00123143 157.01903805 207.27570326 150.3503418 204.21704102 C147.28061555 201.93268511 146.47001583 200.0700718 145.03515625 196.5390625 C144.53693359 195.34418213 144.03871094 194.14930176 143.52539062 192.91821289 C143.26733643 192.28062042 143.00928223 191.64302795 142.7434082 190.9861145 C141.35726987 187.57005616 139.91236729 184.17890225 138.47265625 180.78515625 C138.02921371 179.73553963 138.02921371 179.73553963 137.57681274 178.66471863 C121.14164375 139.95109299 100.07663629 102.89659234 70.875 72.375 C70.35599121 71.82344238 69.83698242 71.27188477 69.30224609 70.70361328 C46.8669406 46.94109223 14.81428978 24.44202806 -18.99609375 23.13671875 C-49.05134363 22.53161575 -71.27973737 36.0823499 -94.125 54.375 C-94.77291504 54.89143066 -95.42083008 55.40786133 -96.08837891 55.93994141 C-103.56135327 61.90802803 -110.92936518 67.9437213 -117.98046875 74.41015625 C-119.93878128 76.20438431 -121.92726137 77.95195236 -123.9375 79.6875 C-137.05685471 91.15381602 -150.22436362 103.10764236 -161.47265625 116.4453125 C-163.54058631 118.86034193 -165.71107434 121.17065725 -167.875 123.5 C-173.65552901 129.85423565 -178.91725242 136.54781927 -184.125 143.375 C-184.69911621 144.12458984 -185.27323242 144.87417969 -185.86474609 145.64648438 C-195.02115667 157.62756354 -203.73178309 169.84912566 -212.125 182.375 C-212.95952392 183.6133564 -213.79415241 184.85164233 -214.62890625 186.08984375 C-242.93960159 228.21643694 -269.78380274 271.3989527 -295.125 315.375 C-295.76824219 316.48875 -296.41148437 317.6025 -297.07421875 318.75 C-305.81261092 333.88723214 -314.32597563 349.12775032 -322.59130859 364.52978516 C-324.60440958 368.26437269 -326.64555729 371.98325176 -328.68701172 375.70239258 C-334.75620808 386.76539402 -340.62681994 397.92371166 -346.42993164 409.12817383 C-347.66448424 411.49290306 -348.90795643 413.85140226 -350.16186523 416.20581055 C-357.61581204 430.22679483 -364.73712786 444.41173819 -371.8371582 458.61401367 C-373.22925358 461.3982853 -374.6241269 464.18113477 -376.02172852 466.96264648 C-384.9196307 484.67266958 -393.53560049 502.47332642 -401.7973938 520.49002075 C-403.5444597 524.28651467 -405.32270429 528.06762648 -407.11328125 531.84375 C-447.23398312 616.64778538 -482.24548936 703.9640724 -557.125 910.375 C-557.53532471 911.57203552 -557.94564941 912.76907104 -558.3684082 914.00238037 C-570.37388625 949.04153167 -582.09728588 984.15555088 -593.21472168 1019.48852539 C-594.11335168 1022.3380634 -595.01710033 1025.18592135 -595.92285156 1028.03320312 C-617.15748269 1094.80050213 -635.64214195 1162.5916766 -649.125 1231.375 C-649.31731201 1232.35543274 -649.50962402 1233.33586548 -649.70776367 1234.3460083 C-651.10853053 1241.51633191 -652.46960254 1248.6936343 -653.8125 1255.875 C-653.98159882 1256.76879364 -654.15069763 1257.66258728 -654.32492065 1258.58346558 C-655.44179312 1264.52274899 -656.47794471 1270.47278724 -657.46853638 1276.43441772 C-657.94210144 1279.27710701 -658.4235603 1282.11781042 -658.91207886 1284.95791626 C-664.74718455 1319.13191171 -667.48420783 1353.40887387 -669.85684437 1387.95363867 C-670.66003927 1399.64108485 -671.49873715 1411.32605335 -672.33502495 1423.01117051 C-672.58870484 1426.55586429 -672.84158253 1430.10061099 -673.09246445 1433.645504 C-674.52499198 1453.87684265 -676.15976586 1474.07977108 -678.09525967 1494.26951504 C-679.28159372 1506.66649468 -680.30423188 1519.03570736 -680.25 1531.5 C-680.25386719 1532.46357422 -680.25773438 1533.42714844 -680.26171875 1534.41992188 C-680.25521604 1539.40425275 -680.08586384 1544.31010538 -679.6171875 1549.2734375 C-678.37539022 1562.7733493 -678.37539022 1562.7733493 -680.3828125 1567.0625 C-682.52632858 1569.14323528 -684.38399116 1570.18695919 -687.125 1571.375 C-688.64867187 1572.08076172 -688.64867187 1572.08076172 -690.203125 1572.80078125 C-700.76888728 1577.24491112 -713.45302382 1580.80662708 -724.85546875 1577.609375 C-727.57182533 1576.13197624 -727.96332854 1575.1817145 -729.125 1572.375 C-736.67782808 1525.37962528 -729.06971206 1475.03102719 -725.03139114 1427.995224 C-724.81871412 1425.51011148 -724.60851984 1423.02480036 -724.39889526 1420.53942871 C-722.80207585 1401.68305013 -720.86933942 1382.9025618 -718.52409554 1364.12396622 C-715.4274222 1339.27749438 -713.28250143 1314.45001499 -711.60519409 1289.4706459 C-711.36699452 1285.94397467 -711.12374367 1282.41768229 -710.87915039 1278.89144897 C-707.62735552 1231.97402053 -704.81615153 1185.02980699 -702.02368164 1138.08322144 C-699.24119176 1091.31369056 -696.32497255 1044.55423573 -693.27276039 997.80149171 C-693.14051672 995.77568501 -693.00832392 993.749875 -692.87614441 991.72406411 C-691.20750667 966.15179342 -689.5333095 940.57988756 -687.84448242 915.00894165 C-684.30273455 861.38204808 -680.82984987 807.75449446 -677.76953125 754.09765625 C-677.7080638 753.02280252 -677.64659636 751.94794878 -677.58326626 750.84052372 C-675.50574256 714.49889529 -673.56884378 678.14699412 -672.13671875 641.7734375 C-672.09968023 640.84515514 -672.06264172 639.91687279 -672.02448082 638.96046066 C-669.75100084 581.77760086 -667.98545509 524.5724863 -666.125 467.375 C-666.79508087 468.59455383 -666.79508087 468.59455383 -667.47869873 469.83874512 C-669.17220938 472.91929613 -670.86703164 475.99911841 -672.56268311 479.07849121 C-673.28967275 480.39933775 -674.01617174 481.72045449 -674.74212646 483.04187012 C-680.60792353 493.71784408 -686.66071495 504.26723155 -692.83984375 514.765625 C-695.43654028 519.18250665 -697.98067616 523.62616677 -700.50195312 528.08642578 C-706.31902023 538.3731373 -712.39889832 548.48872778 -718.55688477 558.57348633 C-723.56548243 566.7799459 -728.49248426 575.03047288 -733.375 583.3125 C-740.13704245 594.76613578 -747.07197385 606.09878948 -754.125 617.375 C-755.36480868 619.36314074 -756.60438359 621.35142728 -757.84375 623.33984375 C-770.16082334 643.08828078 -782.61142121 662.75061366 -795.125 682.375 C-795.75422363 683.36274414 -796.38344727 684.35048828 -797.03173828 685.36816406 C-806.88584278 700.83229082 -816.85748719 716.21581111 -826.92242432 731.54345703 C-828.16525167 733.43630398 -829.40762009 735.32945152 -830.64990234 737.22265625 C-836.36651408 745.93383296 -842.08972198 754.64065699 -847.81640625 763.34521484 C-850.14796559 766.88926598 -852.47854475 770.43395962 -854.80859375 773.97900391 C-858.0283909 778.87753738 -861.25003865 783.77484971 -864.47277832 788.67144775 C-865.72097876 790.56849935 -866.96863705 792.4659078 -868.21569824 794.3637085 C-874.8856244 804.51297627 -881.61170504 814.61346983 -888.52050781 824.60180664 C-891.12493867 828.36768438 -893.69958288 832.15320091 -896.265625 835.9453125 C-896.6829892 836.56204834 -897.10035339 837.17878418 -897.53036499 837.81420898 C-898.37802536 839.06733428 -899.22550744 840.32058018 -900.07281494 841.57394409 C-902.34128947 844.9292343 -904.61205067 848.28297626 -906.8828125 851.63671875 C-907.55683609 852.63225517 -907.55683609 852.63225517 -908.24447632 853.64790344 C-917.71878338 867.63795819 -927.25185301 881.58772768 -936.83642578 895.50244141 C-938.12073734 897.3688055 -939.40255351 899.23685805 -940.68359375 901.10546875 C-948.0813088 911.89212768 -955.55135307 922.62799234 -963.02685547 933.36083984 C-965.11481384 936.36036673 -967.20038222 939.36154044 -969.28515625 942.36328125 C-976.71391873 953.05762781 -984.17225162 963.72932717 -991.69824219 974.35546875 C-993.15015837 976.41061089 -994.59542454 978.47028586 -996.0390625 980.53125 C-1002.99130544 990.44527271 -1010.11979107 1000.21779407 -1017.32958984 1009.94580078 C-1019.13968269 1012.39486576 -1020.94034754 1014.85059138 -1022.73828125 1017.30859375 C-1033.30311116 1031.74158651 -1044.33803573 1045.72071002 -1055.65283203 1059.57080078 C-1056.94771511 1061.15773046 -1058.23790478 1062.74848737 -1059.52734375 1064.33984375 C-1068.01697938 1074.79453067 -1076.77934933 1084.99718196 -1085.88671875 1094.91796875 C-1087.87817336 1097.10405069 -1089.82172513 1099.32082606 -1091.75 1101.5625 C-1094.73642697 1105.00460245 -1097.92298706 1108.19363232 -1101.171875 1111.38671875 C-1103.00698671 1113.25486247 -1104.69245818 1115.18233487 -1106.375 1117.1875 C-1110.72523884 1122.24130822 -1115.69647574 1126.61404157 -1120.65673828 1131.05078125 C-1121.97177668 1132.23680856 -1123.26661225 1133.44514696 -1124.55859375 1134.65625 C-1147.85484702 1156.34180111 -1176.2855337 1172.5107891 -1207.125 1180.375 C-1208.08921875 1180.64054687 -1209.0534375 1180.90609375 -1210.046875 1181.1796875 C-1225.74427658 1184.82908341 -1244.28660805 1183.87056816 -1258.4375 1176.125 C-1277.20484848 1164.35275413 -1285.20033218 1142.91784623 -1289.9609375 1122.171875 C-1295.33458556 1096.78385496 -1296.33458683 1071.39980126 -1296.3125 1045.5625 C-1296.31189575 1044.26510895 -1296.3112915 1042.9677179 -1296.31066895 1041.63101196 C-1296.26721288 1007.28243387 -1294.39601949 973.01476455 -1289.23828125 939.015625 C-1289.0532605 937.77474121 -1289.0532605 937.77474121 -1288.86450195 936.50878906 C-1287.62372155 932.92859074 -1285.08925133 931.43069866 -1281.875 929.6484375 C-1270.54016212 924.39963473 -1255.79759099 918.10113432 -1243.25 922.5625 C-1240.125 924.375 -1240.125 924.375 -1239.38549805 926.53857422 C-1239.0669718 930.00683845 -1239.39562637 933.11289646 -1239.83203125 936.5703125 C-1239.91689789 937.26686447 -1240.00176453 937.96341644 -1240.08920288 938.68107605 C-1240.27147803 940.17672299 -1240.45687872 941.67199174 -1240.64511108 943.16690063 C-1241.14123709 947.12570756 -1241.6072041 951.08799397 -1242.0703125 955.05078125 C-1242.16332138 955.84616806 -1242.25633026 956.64155487 -1242.35215759 957.46104431 C-1243.1657798 964.52502611 -1243.79881685 971.59518809 -1244.3125 978.6875 C-1244.38380127 979.65381348 -1244.45510254 980.62012695 -1244.52856445 981.61572266 C-1245.76766588 999.6283918 -1246.33338538 1017.63440993 -1246.3125 1035.6875 C-1246.31189575 1036.66535461 -1246.3112915 1037.64320923 -1246.31066895 1038.6506958 C-1246.25138038 1074.14502366 -1246.08371285 1123.50755826 -1220.125 1151.375 C-1214.73698791 1155.72685592 -1210.185228 1158.89034511 -1203.125 1158.375 C-1189.33496144 1152.59864166 -1176.7098117 1141.23118168 -1165.96875 1131.04296875 C-1163.77633781 1128.98607654 -1161.56006369 1127.00888211 -1159.28515625 1125.046875 C-1155.03435384 1121.34661925 -1151.03477969 1117.43289674 -1147.0625 1113.4375 C-1146.39412109 1112.77298828 -1145.72574219 1112.10847656 -1145.03710938 1111.42382812 C-1141.10960941 1107.48869454 -1137.37110994 1103.44383112 -1133.73950195 1099.23461914 C-1131.46909524 1096.61951436 -1129.11048388 1094.09665311 -1126.75 1091.5625 C-1122.4594513 1086.91808403 -1118.39627586 1082.13741201 -1114.4296875 1077.2109375 C-1112.36685844 1074.67260886 -1110.26628603 1072.17641012 -1108.14135742 1069.69042969 C-1102.45287842 1063.03473957 -1096.99565232 1056.22540817 -1091.62890625 1049.30859375 C-1090.02987797 1047.25270025 -1088.42179961 1045.20411162 -1086.8125 1043.15625 C-1078.3653424 1032.38552919 -1070.17961467 1021.44172179 -1062.125 1010.375 C-1061.5798877 1009.62750488 -1061.03477539 1008.88000977 -1060.47314453 1008.10986328 C-1052.47748123 997.1359415 -1044.65488094 986.04607953 -1036.89111328 974.90722656 C-1033.97477636 970.72582671 -1031.04941557 966.55075157 -1028.125 962.375 C-1026.96221782 960.7135569 -1025.79945743 959.05209854 -1024.63671875 957.390625 C-1022.26615704 954.00391913 -1019.89353854 950.61866639 -1017.51953125 947.234375 C-1010.78170578 937.62590461 -1004.08385488 927.99222424 -997.45166016 918.31054688 C-995.17987929 914.99610471 -992.90202964 911.68583727 -990.625 908.375 C-989.70051368 907.02995284 -988.77603449 905.68490077 -987.8515625 904.33984375 C-986.09808781 901.78916565 -984.34286849 899.23970468 -982.5859375 896.69140625 C-969.07658254 877.08863478 -955.75249691 857.36002502 -942.4375 837.625 C-941.53043304 836.28107681 -941.53043304 836.28107681 -940.6050415 834.91000366 C-926.88679466 814.58197994 -913.3011738 794.16851217 -899.8125 773.6875 C-899.18458557 772.73442963 -898.55667114 771.78135925 -897.909729 770.79940796 C-887.94851411 755.67944168 -878.00158356 740.55043049 -868.125 725.375 C-867.63016113 724.61477539 -867.13532227 723.85455078 -866.62548828 723.07128906 C-853.31320567 702.60012144 -840.21093237 681.9913309 -827.125 661.375 C-826.6098584 660.56369629 -826.0947168 659.75239258 -825.56396484 658.91650391 C-817.65910695 646.4590569 -809.86884997 633.93305759 -802.125 621.375 C-801.20460938 619.88419922 -801.20460938 619.88419922 -800.265625 618.36328125 C-785.5494769 594.52431776 -770.89228769 570.65895341 -756.87402344 546.40087891 C-755.05771642 543.25859677 -753.23608045 540.11944241 -751.4140625 536.98046875 C-743.37415625 523.10911378 -735.47120471 509.1657794 -727.67382812 495.15673828 C-726.28016583 492.65368214 -724.88302345 490.15261584 -723.484375 487.65234375 C-701.2505512 447.85455163 -680.3092908 407.62216253 -663.125 365.375 C-662.78156052 364.62528931 -662.43812103 363.87557861 -662.08427429 363.10314941 C-660.95751523 359.89867797 -660.73910701 357.13200385 -660.5625 353.73974609 C-660.52640625 353.09344238 -660.4903125 352.44713867 -660.453125 351.78125 C-660.37623053 350.38411969 -660.30328452 348.98676758 -660.23388672 347.58924484 C-660.12345752 345.36740278 -660.00249093 343.14634818 -659.87890625 340.92520142 C-659.61803775 336.20062356 -659.3710479 331.47536911 -659.125 326.75 C-658.839324 321.29035222 -658.54780678 315.83109274 -658.24560547 310.37233353 C-658.12790728 308.20204614 -658.01876084 306.03144579 -657.91015625 303.86068726 C-656.73036152 281.55527039 -656.73036152 281.55527039 -651.125 275.375 C-640.91714763 266.63185051 -626.45098488 262.42690621 -613.125 263.375 C-607.49164213 264.24914174 -604.81477996 266.07440891 -601.41015625 270.44140625 C-596.99805666 277.07967159 -595.96976406 283.82998031 -595.875 291.6875 C-595.84921875 292.94175781 -595.8234375 294.19601562 -595.796875 295.48828125 C-596.31285468 308.70698095 -600.42366853 321.19014469 -604.75 333.5625 C-605.5073238 335.75636937 -606.26145099 337.95128245 -607.01254272 340.14729309 C-607.47464769 341.49549918 -607.94071954 342.84235486 -608.41152954 344.18754578 C-610.27190882 349.56763732 -611.22601988 354.50789357 -611.51049805 360.18701172 C-611.57138611 361.37623734 -611.63227417 362.56546295 -611.69500732 363.79072571 C-611.75918786 365.12869973 -611.82307868 366.46668767 -611.88671875 367.8046875 C-611.95827171 369.26340633 -612.02990987 370.72212097 -612.10162354 372.18083191 C-612.30268551 376.31220402 -612.4965625 380.44388704 -612.68827438 384.57570267 C-612.81371207 387.27609305 -612.94065054 389.97641031 -613.06765747 392.67672729 C-614.9616453 433.17267048 -616.35048124 473.68681738 -617.77305388 514.20135975 C-621.28232145 614.11761312 -625.56469342 713.94743861 -646.125 1036.375 C-645.92628076 1035.74209077 -645.72756151 1035.10918154 -645.52282047 1034.45709324 C-636.1332409 1004.55998456 -626.74278908 974.66751028 -616.78053665 944.95508957 C-616.03335316 942.72552712 -615.28786692 940.49540245 -614.54269409 938.26516724 C-606.02924473 912.79493273 -597.2476995 887.42970853 -588.13104248 862.16851807 C-586.75433069 858.34574782 -585.38762085 854.51942899 -584.02053833 850.69320679 C-553.12642196 764.26579833 -519.30979042 678.72446025 -472.125 572.375 C-471.65383759 571.32536072 -471.65383759 571.32536072 -471.17315674 570.2545166 C-447.51176883 517.56317765 -422.83647595 465.04511356 -395.58056641 414.10644531 C-394.12997929 411.3843439 -392.68982769 408.65686158 -391.2520752 405.92796326 C-383.48560673 391.18754378 -375.62375032 376.52552508 -367.35546875 362.05859375 C-364.41798011 356.91415084 -361.55371822 351.7313377 -358.69604492 346.54223633 C-351.11299787 332.78463302 -343.21094549 319.24264874 -335.14550781 305.76318359 C-333.11347595 302.35567535 -331.09723197 298.93931568 -329.0859375 295.51953125 C-320.88542487 281.58472099 -312.49513801 267.78998578 -303.859375 254.12060547 C-302.2044588 251.5007874 -300.55457981 248.87787187 -298.90625 246.25390625 C-297.89607758 244.6482838 -296.88567428 243.04280659 -295.875 241.4375 C-295.24126465 240.43009766 -295.24126465 240.43009766 -294.59472656 239.40234375 C-285.56398976 225.10537594 -276.26164379 210.98668232 -266.8815918 196.91723633 C-265.05851424 194.18151895 -263.23916424 191.44334692 -261.41992188 188.70507812 C-249.14651227 170.26507371 -236.34486541 152.37852585 -222.125 135.375 C-221.68462402 134.84825684 -221.24424805 134.32151367 -220.79052734 133.77880859 C-209.55028047 120.38043432 -197.5918344 107.762086 -185.25 95.375 C-184.37029541 94.49062256 -183.49059082 93.60624512 -182.58422852 92.69506836 C-177.59075539 87.71389792 -172.47684055 82.96618824 -167.125 78.375 C-165.51731627 76.92054483 -163.91260285 75.46279105 -162.3125 74 C-157.06313969 69.26919352 -151.62811234 64.80589303 -146.125 60.375 C-144.98008027 59.43797447 -143.83556742 58.50045162 -142.69140625 57.5625 C-111.17375305 31.85763277 -77.02862732 12.35004058 -37.125 3.375 C-35.99336426 3.10598877 -35.99336426 3.10598877 -34.83886719 2.83154297 C-23.3370113 0.1738172 -11.74690168 0.06945403 0 0 Z " fill="#231F20" transform="translate(1382.125,81.625)"/>
</svg>
