<svg width="305" height="262" viewBox="0 0 305 262" fill="none" xmlns="http://www.w3.org/2000/svg">
<path d="M90.7073 245.073C90.7073 115.073 144 -30.5 177 31.5" stroke="black" stroke-width="4.5" stroke-linecap="round"/>
<path d="M90.7073 251.073L80.5 67.5C80.5 130.5 -26.7927 211.573 10.2073 144.573" stroke="black" stroke-width="4.5" stroke-linecap="round"/>
<path d="M127.75 122.156C127.75 122.531 127.594 122.969 127.281 123.469L127.188 123.75C127.312 124.125 127.375 124.406 127.375 124.594C126.938 124.906 126.625 125.25 126.438 125.625C126.25 125.938 125.812 126.094 125.125 126.094C124.562 126.094 124 125.875 123.438 125.438C122.875 124.938 122.594 124.344 122.594 123.656C122.594 122.531 122.688 121.625 122.875 120.938C123.125 120.188 123.969 119.812 125.406 119.812C125.969 119.812 126.5 120.062 127 120.562C127.5 121.062 127.75 121.594 127.75 122.156ZM127.094 181.969C127.094 182.281 127 182.531 126.812 182.719C125.625 184.156 124.469 185.594 123.344 187.031C122.281 188.406 121.125 189.688 119.875 190.875C118.688 192.062 117.344 193.062 115.844 193.875C114.344 194.75 112.625 195.375 110.688 195.75C109 195 107.844 194 107.219 192.75C106.594 191.562 106.281 190.094 106.281 188.344V184.969C106.281 183.344 106.438 181.656 106.75 179.906C107.125 178.156 107.5 176.469 107.875 174.844C108.438 172.406 109.062 169.781 109.75 166.969C110.5 164.156 111.344 161.375 112.281 158.625C113.281 155.812 114.406 153.125 115.656 150.562C116.906 147.938 118.312 145.656 119.875 143.719C120.188 143.406 120.5 143.25 120.812 143.25C121.188 143.25 121.562 143.406 121.938 143.719C122.312 143.969 122.5 144.312 122.5 144.75V144.938C121.438 148.25 120.219 151.75 118.844 155.438C117.531 159.062 116.25 162.781 115 166.594C113.812 170.344 112.781 174.094 111.906 177.844C111.094 181.594 110.688 185.219 110.688 188.719C110.688 189.094 110.688 189.625 110.688 190.312C110.75 191 110.969 191.438 111.344 191.625C112.719 191.375 114.156 190.656 115.656 189.469C117.219 188.281 118.656 187.031 119.969 185.719C121.344 184.406 122.531 183.219 123.531 182.156C124.531 181.094 125.219 180.562 125.594 180.562C125.906 180.562 126.219 180.719 126.531 181.031C126.906 181.344 127.094 181.656 127.094 181.969ZM157.281 147.844C157.281 148.469 157.031 148.875 156.531 149.062C155.469 149.562 154.406 150.031 153.344 150.469C152.344 150.906 151.344 151.469 150.344 152.156C146.156 154.719 142.562 157.969 139.562 161.906C136.562 165.844 134.438 170.188 133.188 174.938C132.625 177.375 132.344 179.844 132.344 182.344C132.344 183.219 132.406 184.188 132.531 185.25C132.656 186.25 132.875 187.25 133.188 188.25C133.562 189.25 134.031 190.156 134.594 190.969C135.219 191.781 136 192.375 136.938 192.75C137 192.812 137.094 192.844 137.219 192.844C137.406 192.844 137.531 192.844 137.594 192.844C139.156 192.844 140.594 192.438 141.906 191.625C143.219 190.75 144.406 189.781 145.469 188.719C147.156 187.031 148.75 185.094 150.25 182.906C150.562 182.469 150.875 182.031 151.188 181.594C151.5 181.156 151.812 180.75 152.125 180.375C152.312 180.062 152.594 179.906 152.969 179.906C153.344 179.906 153.688 180.062 154 180.375C154.375 180.625 154.562 180.938 154.562 181.312C154.562 181.438 154.406 181.75 154.094 182.25C153.844 182.75 153.531 183.312 153.156 183.938C152.781 184.5 152.406 185.062 152.031 185.625C151.719 186.125 151.5 186.469 151.375 186.656C150.5 187.969 149.562 189.25 148.562 190.5C147.625 191.75 146.562 192.844 145.375 193.781C144.25 194.719 142.969 195.469 141.531 196.031C140.094 196.594 138.531 196.875 136.844 196.875C136.469 196.875 136.188 196.844 136 196.781C134.812 196.594 133.75 196.125 132.812 195.375C131.938 194.688 131.156 193.812 130.469 192.75C129.844 191.75 129.344 190.688 128.969 189.562C128.594 188.375 128.312 187.25 128.125 186.188C128 185.438 127.906 184.688 127.844 183.938C127.781 183.188 127.75 182.406 127.75 181.594C127.75 178.906 128.062 176.344 128.688 173.906C129.312 171.156 130.219 168.438 131.406 165.75C132.656 163.062 134.156 160.562 135.906 158.25C137.656 155.938 139.656 153.906 141.906 152.156C144.156 150.344 146.656 148.906 149.406 147.844C150.344 147.469 151.406 147.125 152.594 146.812C153.781 146.438 154.906 146.25 155.969 146.25C156.281 146.25 156.562 146.438 156.812 146.812C157.125 147.188 157.281 147.531 157.281 147.844ZM223 186.094C223 186.531 222.438 187.188 221.312 188.062C220.25 188.875 219 189.719 217.562 190.594C216.125 191.406 214.719 192.156 213.344 192.844C212.031 193.594 211.125 194.062 210.625 194.25C209.438 194.688 208.312 194.906 207.25 194.906C205.25 194.906 203.844 194.25 203.031 192.938C202.281 191.625 201.906 190.062 201.906 188.25C201.906 186.312 202.25 184.031 202.938 181.406C203.625 178.781 204.438 176.094 205.375 173.344C206.375 170.531 207.375 167.812 208.375 165.188C209.438 162.5 210.312 160.188 211 158.25C211.438 156.938 211.906 155.438 212.406 153.75C212.969 152.062 213.25 150.5 213.25 149.062C212.375 149.312 211.344 149.719 210.156 150.281C209.031 150.781 208.094 151.281 207.344 151.781C204.531 153.656 201.812 155.625 199.188 157.688C196.562 159.688 193.938 161.781 191.312 163.969C190.312 167.906 189.188 171.812 187.938 175.688C186.688 179.562 185.25 183.375 183.625 187.125C183.125 188.188 182.625 189.281 182.125 190.406C181.688 191.531 181.156 192.562 180.531 193.5C180.281 193.938 179.938 194.156 179.5 194.156C179.188 194.156 178.812 194 178.375 193.688C178 193.375 177.812 193.062 177.812 192.75C177.812 192.688 177.875 192.312 178 191.625C178.188 190.875 178.312 190.469 178.375 190.406C179.25 186.531 180.281 182.75 181.469 179.062C182.719 175.312 183.969 171.562 185.219 167.812C186.219 164.438 187.156 161.062 188.031 157.688C188.406 156.25 188.75 154.812 189.062 153.375C189.375 151.875 189.531 150.406 189.531 148.969C189.531 148.719 189.5 148.5 189.438 148.312C189.438 148.125 189.438 147.938 189.438 147.75C187.938 148.062 186.281 149 184.469 150.562C182.719 152.062 180.969 153.812 179.219 155.812C177.469 157.75 175.812 159.719 174.25 161.719C172.688 163.656 171.375 165.219 170.312 166.406C170.188 166.531 170.094 166.594 170.031 166.594C169.844 166.969 169.656 167.344 169.469 167.719C169.344 168.094 169.188 168.438 169 168.75C167.562 171.562 166.188 174.344 164.875 177.094C163.625 179.844 162.406 182.656 161.219 185.531C160.531 187.094 159.906 188.688 159.344 190.312C158.844 191.875 158.281 193.438 157.656 195C157.469 195.5 157.125 195.75 156.625 195.75C156.312 195.75 155.938 195.594 155.5 195.281C155.125 194.969 154.938 194.688 154.938 194.438C154.938 194.375 155 194.156 155.125 193.781C155.188 193.469 155.281 193.094 155.406 192.656C155.469 192.219 155.531 191.812 155.594 191.438C155.719 191.062 155.781 190.812 155.781 190.688C156.844 186.562 158.125 182.5 159.625 178.5C161.188 174.5 162.906 170.562 164.781 166.688C165.656 164.875 166.5 163.062 167.312 161.25C168.125 159.375 169 157.531 169.938 155.719C170.312 154.969 170.75 154.094 171.25 153.094C171.75 152.094 172.281 151.125 172.844 150.188C173.469 149.188 174.094 148.25 174.719 147.375C175.344 146.438 175.938 145.688 176.5 145.125C176.75 144.875 177.031 144.75 177.344 144.75C177.594 144.75 177.938 144.938 178.375 145.312C178.812 145.625 179.031 145.938 179.031 146.25C179.031 146.438 178.906 146.844 178.656 147.469C178.469 148.094 178.25 148.781 178 149.531C177.75 150.281 177.469 151 177.156 151.688C176.906 152.312 176.75 152.75 176.688 153C177.375 152.188 178.219 151.219 179.219 150.094C180.219 148.969 181.281 147.906 182.406 146.906C183.594 145.844 184.812 144.969 186.062 144.281C187.312 143.594 188.531 143.25 189.719 143.25C190.656 143.25 191.406 143.438 191.969 143.812C192.594 144.188 193.031 144.688 193.281 145.312C193.594 145.875 193.781 146.531 193.844 147.281C193.969 148.031 194.031 148.781 194.031 149.531C194.031 150.781 193.938 152.031 193.75 153.281C193.562 154.531 193.312 155.781 193 157.031C194.188 155.844 195.625 154.5 197.312 153C199 151.438 200.812 150 202.75 148.688C204.688 147.312 206.625 146.188 208.562 145.312C210.562 144.375 212.406 143.906 214.094 143.906C215.094 143.906 216 144.312 216.812 145.125C217.688 145.938 218.125 146.844 218.125 147.844C218.125 149.031 218.062 150.188 217.938 151.312C217.812 152.438 217.562 153.562 217.188 154.688C216.438 157.25 215.562 159.812 214.562 162.375C213.562 164.875 212.562 167.375 211.562 169.875C210.562 172.375 209.594 174.875 208.656 177.375C207.781 179.875 207.031 182.438 206.406 185.062C206.281 185.688 206.156 186.312 206.031 186.938C205.906 187.562 205.844 188.188 205.844 188.812C205.844 189.5 205.906 190.094 206.031 190.594C206.156 191.031 206.625 191.25 207.438 191.25C208.5 191.25 209.781 190.906 211.281 190.219C212.781 189.531 214.25 188.781 215.688 187.969C217.188 187.094 218.469 186.312 219.531 185.625C220.656 184.938 221.344 184.594 221.594 184.594C221.969 184.594 222.281 184.75 222.531 185.062C222.844 185.375 223 185.719 223 186.094ZM246.906 122.156C246.906 122.531 246.75 122.969 246.438 123.469L246.344 123.75C246.469 124.125 246.531 124.406 246.531 124.594C246.094 124.906 245.781 125.25 245.594 125.625C245.406 125.938 244.969 126.094 244.281 126.094C243.719 126.094 243.156 125.875 242.594 125.438C242.031 124.938 241.75 124.344 241.75 123.656C241.75 122.531 241.844 121.625 242.031 120.938C242.281 120.188 243.125 119.812 244.562 119.812C245.125 119.812 245.656 120.062 246.156 120.562C246.656 121.062 246.906 121.594 246.906 122.156ZM246.25 181.969C246.25 182.281 246.156 182.531 245.969 182.719C244.781 184.156 243.625 185.594 242.5 187.031C241.438 188.406 240.281 189.688 239.031 190.875C237.844 192.062 236.5 193.062 235 193.875C233.5 194.75 231.781 195.375 229.844 195.75C228.156 195 227 194 226.375 192.75C225.75 191.562 225.438 190.094 225.438 188.344V184.969C225.438 183.344 225.594 181.656 225.906 179.906C226.281 178.156 226.656 176.469 227.031 174.844C227.594 172.406 228.219 169.781 228.906 166.969C229.656 164.156 230.5 161.375 231.438 158.625C232.438 155.812 233.562 153.125 234.812 150.562C236.062 147.938 237.469 145.656 239.031 143.719C239.344 143.406 239.656 143.25 239.969 143.25C240.344 143.25 240.719 143.406 241.094 143.719C241.469 143.969 241.656 144.312 241.656 144.75V144.938C240.594 148.25 239.375 151.75 238 155.438C236.688 159.062 235.406 162.781 234.156 166.594C232.969 170.344 231.938 174.094 231.062 177.844C230.25 181.594 229.844 185.219 229.844 188.719C229.844 189.094 229.844 189.625 229.844 190.312C229.906 191 230.125 191.438 230.5 191.625C231.875 191.375 233.312 190.656 234.812 189.469C236.375 188.281 237.812 187.031 239.125 185.719C240.5 184.406 241.688 183.219 242.688 182.156C243.688 181.094 244.375 180.562 244.75 180.562C245.062 180.562 245.375 180.719 245.688 181.031C246.062 181.344 246.25 181.656 246.25 181.969ZM276.438 147.844C276.438 148.469 276.188 148.875 275.688 149.062C274.625 149.562 273.562 150.031 272.5 150.469C271.5 150.906 270.5 151.469 269.5 152.156C265.312 154.719 261.719 157.969 258.719 161.906C255.719 165.844 253.594 170.188 252.344 174.938C251.781 177.375 251.5 179.844 251.5 182.344C251.5 183.219 251.562 184.188 251.688 185.25C251.812 186.25 252.031 187.25 252.344 188.25C252.719 189.25 253.188 190.156 253.75 190.969C254.375 191.781 255.156 192.375 256.094 192.75C256.156 192.812 256.25 192.844 256.375 192.844C256.562 192.844 256.688 192.844 256.75 192.844C258.312 192.844 259.75 192.438 261.062 191.625C262.375 190.75 263.562 189.781 264.625 188.719C266.312 187.031 267.906 185.094 269.406 182.906C269.719 182.469 270.031 182.031 270.344 181.594C270.656 181.156 270.969 180.75 271.281 180.375C271.469 180.062 271.75 179.906 272.125 179.906C272.5 179.906 272.844 180.062 273.156 180.375C273.531 180.625 273.719 180.938 273.719 181.312C273.719 181.438 273.562 181.75 273.25 182.25C273 182.75 272.688 183.312 272.312 183.938C271.938 184.5 271.562 185.062 271.188 185.625C270.875 186.125 270.656 186.469 270.531 186.656C269.656 187.969 268.719 189.25 267.719 190.5C266.781 191.75 265.719 192.844 264.531 193.781C263.406 194.719 262.125 195.469 260.688 196.031C259.25 196.594 257.688 196.875 256 196.875C255.625 196.875 255.344 196.844 255.156 196.781C253.969 196.594 252.906 196.125 251.969 195.375C251.094 194.688 250.312 193.812 249.625 192.75C249 191.75 248.5 190.688 248.125 189.562C247.75 188.375 247.469 187.25 247.281 186.188C247.156 185.438 247.062 184.688 247 183.938C246.938 183.188 246.906 182.406 246.906 181.594C246.906 178.906 247.219 176.344 247.844 173.906C248.469 171.156 249.375 168.438 250.562 165.75C251.812 163.062 253.312 160.562 255.062 158.25C256.812 155.938 258.812 153.906 261.062 152.156C263.312 150.344 265.812 148.906 268.562 147.844C269.5 147.469 270.562 147.125 271.75 146.812C272.938 146.438 274.062 146.25 275.125 146.25C275.438 146.25 275.719 146.438 275.969 146.812C276.281 147.188 276.438 147.531 276.438 147.844Z" fill="black"/>
</svg>
